<?xml version="1.0" encoding="UTF-8" ?>
<svg width="1340" viewBox="30 0 1340 500" height="500" xmlns="http://www.w3.org/2000/svg">
    <line x1="100" y1="25" x2="100" y2="475" stroke="black" stroke-width="2"/>
    <line x1="100" y1="475" x2="1315" y2="475" stroke="black" stroke-width="2"/>
    <text x="680" y="20" font-size="22" text-anchor="middle" fill="black">Main Title</text>
    <text x="-250" y="55" font-size="22" transform="rotate(-90)" text-anchor="middle" fill="black">&#916;G in kcal&#183;mol&#8315;&#185;</text>
    <text x="680" y="495" font-size="22" text-anchor="middle" fill="black">Reaction coordinate</text>
    <line x1="100" y1="40" x2="105" y2="40" stroke="black" stroke-width="2"/>
    <text x="80" y="40" text-anchor="middle" fill="black">24.0</text>
    <line x1="100" y1="57" x2="105" y2="57" stroke="black" stroke-width="2"/>
    <text x="80" y="57" text-anchor="middle" fill="black">22.0</text>
    <line x1="100" y1="74" x2="105" y2="74" stroke="black" stroke-width="2"/>
    <text x="80" y="74" text-anchor="middle" fill="black">20.0</text>
    <line x1="100" y1="92" x2="105" y2="92" stroke="black" stroke-width="2"/>
    <text x="80" y="92" text-anchor="middle" fill="black">18.0</text>
    <line x1="100" y1="109" x2="105" y2="109" stroke="black" stroke-width="2"/>
    <text x="80" y="109" text-anchor="middle" fill="black">16.0</text>
    <line x1="100" y1="126" x2="105" y2="126" stroke="black" stroke-width="2"/>
    <text x="80" y="126" text-anchor="middle" fill="black">14.0</text>
    <line x1="100" y1="143" x2="105" y2="143" stroke="black" stroke-width="2"/>
    <text x="80" y="143" text-anchor="middle" fill="black">12.0</text>
    <line x1="100" y1="160" x2="105" y2="160" stroke="black" stroke-width="2"/>
    <text x="80" y="160" text-anchor="middle" fill="black">10.0</text>
    <line x1="100" y1="177" x2="105" y2="177" stroke="black" stroke-width="2"/>
    <text x="80" y="177" text-anchor="middle" fill="black">8.0</text>
    <line x1="100" y1="194" x2="105" y2="194" stroke="black" stroke-width="2"/>
    <text x="80" y="194" text-anchor="middle" fill="black">6.0</text>
    <line x1="100" y1="212" x2="105" y2="212" stroke="black" stroke-width="2"/>
    <text x="80" y="212" text-anchor="middle" fill="black">4.0</text>
    <line x1="100" y1="229" x2="105" y2="229" stroke="black" stroke-width="2"/>
    <text x="80" y="229" text-anchor="middle" fill="black">2.0</text>
    <line x1="100" y1="246" x2="105" y2="246" stroke="black" stroke-width="2"/>
    <text x="80" y="246" text-anchor="middle" fill="black">0.0</text>
    <line x1="100" y1="263" x2="105" y2="263" stroke="black" stroke-width="2"/>
    <text x="80" y="263" text-anchor="middle" fill="black">-2.0</text>
    <line x1="100" y1="280" x2="105" y2="280" stroke="black" stroke-width="2"/>
    <text x="80" y="280" text-anchor="middle" fill="black">-4.0</text>
    <line x1="100" y1="297" x2="105" y2="297" stroke="black" stroke-width="2"/>
    <text x="80" y="297" text-anchor="middle" fill="black">-6.0</text>
    <line x1="100" y1="314" x2="105" y2="314" stroke="black" stroke-width="2"/>
    <text x="80" y="314" text-anchor="middle" fill="black">-8.0</text>
    <line x1="100" y1="331" x2="105" y2="331" stroke="black" stroke-width="2"/>
    <text x="80" y="331" text-anchor="middle" fill="black">-10.0</text>
    <line x1="100" y1="349" x2="105" y2="349" stroke="black" stroke-width="2"/>
    <text x="80" y="349" text-anchor="middle" fill="black">-12.0</text>
    <line x1="100" y1="366" x2="105" y2="366" stroke="black" stroke-width="2"/>
    <text x="80" y="366" text-anchor="middle" fill="black">-14.0</text>
    <line x1="100" y1="383" x2="105" y2="383" stroke="black" stroke-width="2"/>
    <text x="80" y="383" text-anchor="middle" fill="black">-16.0</text>
    <line x1="100" y1="400" x2="105" y2="400" stroke="black" stroke-width="2"/>
    <text x="80" y="400" text-anchor="middle" fill="black">-18.0</text>
    <line x1="100" y1="417" x2="105" y2="417" stroke="black" stroke-width="2"/>
    <text x="80" y="417" text-anchor="middle" fill="black">-20.0</text>
    <line x1="100" y1="434" x2="105" y2="434" stroke="black" stroke-width="2"/>
    <text x="80" y="434" text-anchor="middle" fill="black">-22.0</text>
    <line x1="100" y1="451" x2="105" y2="451" stroke="black" stroke-width="2"/>
    <text x="80" y="451" text-anchor="middle" fill="black">-24.0</text>
    <line x1="100" y1="469" x2="105" y2="469" stroke="black" stroke-width="2"/>
    <text x="80" y="469" text-anchor="middle" fill="black">-26.0</text>
    <line x1="130" y1="69" x2="170" y2="69" stroke="black" stroke-width="3" />
    <text x="150" y="64" text-anchor="middle" fill="black">A</text>
    <text x="150" y="84" text-anchor="middle" fill="black"> 20.7 </text>
    <line x1="210" y1="296" x2="250" y2="296" stroke="black" stroke-width="3" />
    <text x="230" y="291" text-anchor="middle" fill="black">B</text>
    <text x="230" y="311" text-anchor="middle" fill="black"> -5.8 </text>
    <line x1="170" y1="69" x2="210" y2="296" stroke="black" stroke-width="2" stroke-dasharray="6,6"/>
    <line x1="290" y1="342" x2="330" y2="342" stroke="black" stroke-width="3" />
    <text x="310" y="337" text-anchor="middle" fill="black">C</text>
    <text x="310" y="357" text-anchor="middle" fill="black"> -11.2 </text>
    <line x1="250" y1="296" x2="290" y2="342" stroke="black" stroke-width="2" stroke-dasharray="6,6"/>
    <line x1="370" y1="96" x2="410" y2="96" stroke="black" stroke-width="3" />
    <text x="390" y="91" text-anchor="middle" fill="black">D</text>
    <text x="390" y="111" text-anchor="middle" fill="black"> 17.5 </text>
    <line x1="330" y1="342" x2="370" y2="96" stroke="black" stroke-width="2" stroke-dasharray="6,6"/>
    <line x1="450" y1="446" x2="490" y2="446" stroke="black" stroke-width="3" />
    <text x="470" y="441" text-anchor="middle" fill="black">E</text>
    <text x="470" y="461" text-anchor="middle" fill="black"> -23.4 </text>
    <line x1="410" y1="96" x2="450" y2="446" stroke="black" stroke-width="2" stroke-dasharray="6,6"/>
    <line x1="530" y1="296" x2="570" y2="296" stroke="black" stroke-width="3" />
    <text x="550" y="291" text-anchor="middle" fill="black">F</text>
    <text x="550" y="311" text-anchor="middle" fill="black"> -5.8 </text>
    <line x1="490" y1="446" x2="530" y2="296" stroke="black" stroke-width="2" stroke-dasharray="6,6"/>
    <line x1="610" y1="208" x2="650" y2="208" stroke="black" stroke-width="3" />
    <text x="630" y="203" text-anchor="middle" fill="black">G</text>
    <text x="630" y="223" text-anchor="middle" fill="black"> 4.4 </text>
    <line x1="570" y1="296" x2="610" y2="208" stroke="black" stroke-width="2" stroke-dasharray="6,6"/>
    <line x1="690" y1="446" x2="730" y2="446" stroke="black" stroke-width="3" />
    <text x="710" y="441" text-anchor="middle" fill="black">H</text>
    <text x="710" y="461" text-anchor="middle" fill="black"> -23.4 </text>
    <line x1="650" y1="208" x2="690" y2="446" stroke="black" stroke-width="2" stroke-dasharray="6,6"/>
    <line x1="770" y1="146" x2="810" y2="146" stroke="black" stroke-width="3" />
    <text x="790" y="141" text-anchor="middle" fill="black">I</text>
    <text x="790" y="161" text-anchor="middle" fill="black"> 11.7 </text>
    <line x1="730" y1="446" x2="770" y2="146" stroke="black" stroke-width="2" stroke-dasharray="6,6"/>
    <line x1="850" y1="102" x2="890" y2="102" stroke="black" stroke-width="3" />
    <text x="870" y="97" text-anchor="middle" fill="black">J</text>
    <text x="870" y="117" text-anchor="middle" fill="black"> 16.8 </text>
    <line x1="810" y1="146" x2="850" y2="102" stroke="black" stroke-width="2" stroke-dasharray="6,6"/>
    <line x1="930" y1="127" x2="970" y2="127" stroke="black" stroke-width="3" />
    <text x="950" y="122" text-anchor="middle" fill="black">K</text>
    <text x="950" y="142" text-anchor="middle" fill="black"> 13.9 </text>
    <line x1="890" y1="102" x2="930" y2="127" stroke="black" stroke-width="2" stroke-dasharray="6,6"/>
    <line x1="1010" y1="50" x2="1050" y2="50" stroke="black" stroke-width="3" />
    <text x="1030" y="67" text-anchor="middle" fill="black">L</text>
    <text x="1030" y="82" text-anchor="middle" fill="black"> 22.9 </text>
    <line x1="970" y1="127" x2="1010" y2="50" stroke="black" stroke-width="2" stroke-dasharray="6,6"/>
    <line x1="1090" y1="219" x2="1130" y2="219" stroke="black" stroke-width="3" />
    <text x="1110" y="214" text-anchor="middle" fill="black">M</text>
    <text x="1110" y="234" text-anchor="middle" fill="black"> 3.2 </text>
    <line x1="1050" y1="50" x2="1090" y2="219" stroke="black" stroke-width="2" stroke-dasharray="6,6"/>
    <line x1="1170" y1="440" x2="1210" y2="440" stroke="black" stroke-width="3" />
    <text x="1190" y="435" text-anchor="middle" fill="black">N</text>
    <text x="1190" y="455" text-anchor="middle" fill="black"> -22.6 </text>
    <line x1="1130" y1="219" x2="1170" y2="440" stroke="black" stroke-width="2" stroke-dasharray="6,6"/>
    <line x1="1250" y1="450" x2="1290" y2="450" stroke="black" stroke-width="3" />
    <text x="1270" y="428" text-anchor="middle" fill="black">A'</text>
    <text x="1270" y="443" text-anchor="middle" fill="black"> -23.8 </text>
    <line x1="1210" y1="440" x2="1250" y2="450" stroke="black" stroke-width="2" stroke-dasharray="6,6"/>
    <text x="470" y="399" text-anchor="middle" fill="black">TDI</text>
    <text x="470" y="417" text-anchor="middle" fill="black">&#8595;</text>
    <text x="1030" y="126" text-anchor="middle" fill="black">TDTS</text>
    <text x="1030" y="103" text-anchor="middle" fill="black">&#8593;</text>
    <text x="120" y="450" text-anchor="left" fill="black">Delta = -44.52</text>
    <text x="120" y="470" text-anchor="left" fill="black">Span = 46.21</text>
</svg>
