<?xml version="1.0" encoding="UTF-8" ?>
<svg width="1340" viewBox="30 0 1340 500" height="500" xmlns="http://www.w3.org/2000/svg">
    <line x1="100" y1="25" x2="100" y2="475" stroke="black" stroke-width="2"/>
    <line x1="100" y1="475" x2="1315" y2="475" stroke="black" stroke-width="2"/>
    <text x="680" y="20" font-size="22" text-anchor="middle" fill="black">Main Title</text>
    <text x="-250" y="55" font-size="22" transform="rotate(-90)" text-anchor="middle" fill="black">&#916;E in kcal&#183;mol&#8315;&#185;</text>
    <text x="680" y="495" font-size="22" text-anchor="middle" fill="black">Reaction coordinate</text>
    <line x1="100" y1="36" x2="105" y2="36" stroke="black" stroke-width="2"/>
    <text x="80" y="36" text-anchor="middle" fill="black">55.0</text>
    <line x1="100" y1="58" x2="105" y2="58" stroke="black" stroke-width="2"/>
    <text x="80" y="58" text-anchor="middle" fill="black">50.0</text>
    <line x1="100" y1="80" x2="105" y2="80" stroke="black" stroke-width="2"/>
    <text x="80" y="80" text-anchor="middle" fill="black">45.0</text>
    <line x1="100" y1="103" x2="105" y2="103" stroke="black" stroke-width="2"/>
    <text x="80" y="103" text-anchor="middle" fill="black">40.0</text>
    <line x1="100" y1="125" x2="105" y2="125" stroke="black" stroke-width="2"/>
    <text x="80" y="125" text-anchor="middle" fill="black">35.0</text>
    <line x1="100" y1="147" x2="105" y2="147" stroke="black" stroke-width="2"/>
    <text x="80" y="147" text-anchor="middle" fill="black">30.0</text>
    <line x1="100" y1="170" x2="105" y2="170" stroke="black" stroke-width="2"/>
    <text x="80" y="170" text-anchor="middle" fill="black">25.0</text>
    <line x1="100" y1="192" x2="105" y2="192" stroke="black" stroke-width="2"/>
    <text x="80" y="192" text-anchor="middle" fill="black">20.0</text>
    <line x1="100" y1="214" x2="105" y2="214" stroke="black" stroke-width="2"/>
    <text x="80" y="214" text-anchor="middle" fill="black">15.0</text>
    <line x1="100" y1="237" x2="105" y2="237" stroke="black" stroke-width="2"/>
    <text x="80" y="237" text-anchor="middle" fill="black">10.0</text>
    <line x1="100" y1="259" x2="105" y2="259" stroke="black" stroke-width="2"/>
    <text x="80" y="259" text-anchor="middle" fill="black">5.0</text>
    <line x1="100" y1="281" x2="105" y2="281" stroke="black" stroke-width="2"/>
    <text x="80" y="281" text-anchor="middle" fill="black">0.0</text>
    <line x1="100" y1="304" x2="105" y2="304" stroke="black" stroke-width="2"/>
    <text x="80" y="304" text-anchor="middle" fill="black">-5.0</text>
    <line x1="100" y1="326" x2="105" y2="326" stroke="black" stroke-width="2"/>
    <text x="80" y="326" text-anchor="middle" fill="black">-10.0</text>
    <line x1="100" y1="348" x2="105" y2="348" stroke="black" stroke-width="2"/>
    <text x="80" y="348" text-anchor="middle" fill="black">-15.0</text>
    <line x1="100" y1="371" x2="105" y2="371" stroke="black" stroke-width="2"/>
    <text x="80" y="371" text-anchor="middle" fill="black">-20.0</text>
    <line x1="100" y1="393" x2="105" y2="393" stroke="black" stroke-width="2"/>
    <text x="80" y="393" text-anchor="middle" fill="black">-25.0</text>
    <line x1="100" y1="415" x2="105" y2="415" stroke="black" stroke-width="2"/>
    <text x="80" y="415" text-anchor="middle" fill="black">-30.0</text>
    <line x1="100" y1="438" x2="105" y2="438" stroke="black" stroke-width="2"/>
    <text x="80" y="438" text-anchor="middle" fill="black">-35.0</text>
    <line x1="100" y1="460" x2="105" y2="460" stroke="black" stroke-width="2"/>
    <text x="80" y="460" text-anchor="middle" fill="black">-40.0</text>
    <line x1="128" y1="247" x2="172" y2="247" stroke="black" stroke-width="3" />
    <text x="150" y="242" text-anchor="middle" fill="black">A</text>
    <text x="150" y="262" text-anchor="middle" fill="black"> 7.8 </text>
    <text x="150" y="277" text-anchor="middle" fill="black">[7.39]</text>
    <line x1="208" y1="144" x2="252" y2="144" stroke="black" stroke-width="3" />
    <text x="230" y="139" text-anchor="middle" fill="black">B<tspan dy="-7" font-family="monospace" font-size=".7em">&#8225;</tspan></text>
    <text x="230" y="159" text-anchor="middle" fill="black"> 30.8 </text>
    <text x="230" y="174" text-anchor="middle" fill="black">[31.06]</text>
    <line x1="172" y1="247" x2="208" y2="144" stroke="black" stroke-width="2" stroke-dasharray="6,6"/>
    <line x1="288" y1="220" x2="332" y2="220" stroke="black" stroke-width="3" />
    <text x="310" y="215" text-anchor="middle" fill="black">C</text>
    <text x="310" y="235" text-anchor="middle" fill="black"> 13.7 </text>
    <text x="310" y="250" text-anchor="middle" fill="black">[13.78]</text>
    <line x1="252" y1="144" x2="288" y2="220" stroke="black" stroke-width="2" stroke-dasharray="6,6"/>
    <line x1="368" y1="372" x2="412" y2="372" stroke="black" stroke-width="3" />
    <text x="390" y="367" text-anchor="middle" fill="black">D</text>
    <text x="390" y="387" text-anchor="middle" fill="black"> -20.2 </text>
    <text x="390" y="402" text-anchor="middle" fill="black">[-20.81]</text>
    <line x1="332" y1="220" x2="368" y2="372" stroke="black" stroke-width="2" stroke-dasharray="6,6"/>
    <line x1="448" y1="318" x2="492" y2="318" stroke="black" stroke-width="3" />
    <text x="470" y="313" text-anchor="middle" fill="black">E<tspan dy="-7" font-family="monospace" font-size=".7em">&#8225;</tspan></text>
    <text x="470" y="333" text-anchor="middle" fill="black"> -8.1 </text>
    <text x="470" y="348" text-anchor="middle" fill="black">[-8.27]</text>
    <line x1="412" y1="372" x2="448" y2="318" stroke="black" stroke-width="2" stroke-dasharray="6,6"/>
    <line x1="528" y1="369" x2="572" y2="369" stroke="black" stroke-width="3" />
    <text x="550" y="332" text-anchor="middle" fill="black">F</text>
    <text x="550" y="347" text-anchor="middle" fill="black"> -19.6 </text>
    <text x="550" y="362" text-anchor="middle" fill="black">[-20.31]</text>
    <line x1="492" y1="318" x2="528" y2="369" stroke="black" stroke-width="2" stroke-dasharray="6,6"/>
    <line x1="608" y1="204" x2="652" y2="204" stroke="black" stroke-width="3" />
    <text x="630" y="199" text-anchor="middle" fill="black">G<tspan dy="-7" font-family="monospace" font-size=".7em">&#8225;</tspan></text>
    <text x="630" y="219" text-anchor="middle" fill="black"> 17.4 </text>
    <text x="630" y="234" text-anchor="middle" fill="black">[17.27]</text>
    <line x1="572" y1="369" x2="608" y2="204" stroke="black" stroke-width="2" stroke-dasharray="6,6"/>
    <line x1="688" y1="281" x2="732" y2="281" stroke="black" stroke-width="3" />
    <text x="710" y="244" text-anchor="middle" fill="black">H</text>
    <text x="710" y="259" text-anchor="middle" fill="black"> 0.0 </text>
    <text x="710" y="274" text-anchor="middle" fill="black">[-0.47]</text>
    <line x1="652" y1="204" x2="688" y2="281" stroke="black" stroke-width="2" stroke-dasharray="6,6"/>
    <line x1="768" y1="202" x2="812" y2="202" stroke="black" stroke-width="3" />
    <text x="790" y="197" text-anchor="middle" fill="black">I<tspan dy="-7" font-family="monospace" font-size=".7em">&#8225;</tspan></text>
    <text x="790" y="217" text-anchor="middle" fill="black"> 17.7 </text>
    <text x="790" y="232" text-anchor="middle" fill="black">[16.78]</text>
    <line x1="732" y1="281" x2="768" y2="202" stroke="black" stroke-width="2" stroke-dasharray="6,6"/>
    <line x1="848" y1="327" x2="892" y2="327" stroke="black" stroke-width="3" />
    <text x="870" y="322" text-anchor="middle" fill="black">J</text>
    <text x="870" y="342" text-anchor="middle" fill="black"> -10.2 </text>
    <text x="870" y="357" text-anchor="middle" fill="black">[-9.80]</text>
    <line x1="812" y1="202" x2="848" y2="327" stroke="black" stroke-width="2" stroke-dasharray="6,6"/>
    <line x1="928" y1="417" x2="972" y2="417" stroke="black" stroke-width="3" />
    <text x="950" y="380" text-anchor="middle" fill="black">K</text>
    <text x="950" y="395" text-anchor="middle" fill="black"> -30.4 </text>
    <text x="950" y="410" text-anchor="middle" fill="black">[-29.65]</text>
    <line x1="892" y1="327" x2="928" y2="417" stroke="black" stroke-width="2" stroke-dasharray="6,6"/>
    <line x1="1008" y1="373" x2="1052" y2="373" stroke="black" stroke-width="3" />
    <text x="1030" y="368" text-anchor="middle" fill="black">L</text>
    <text x="1030" y="388" text-anchor="middle" fill="black"> -20.5 </text>
    <text x="1030" y="403" text-anchor="middle" fill="black">[-19.85]</text>
    <line x1="972" y1="417" x2="1008" y2="373" stroke="black" stroke-width="2" stroke-dasharray="6,6"/>
    <line x1="1088" y1="258" x2="1132" y2="258" stroke="black" stroke-width="3" />
    <text x="1110" y="253" text-anchor="middle" fill="black">M</text>
    <text x="1110" y="273" text-anchor="middle" fill="black"> 5.3 </text>
    <text x="1110" y="288" text-anchor="middle" fill="black">[5.44]</text>
    <line x1="1052" y1="373" x2="1088" y2="258" stroke="black" stroke-width="2" stroke-dasharray="6,6"/>
    <line x1="1168" y1="233" x2="1212" y2="233" stroke="black" stroke-width="3" />
    <text x="1190" y="228" text-anchor="middle" fill="black">N<tspan dy="-7" font-family="monospace" font-size=".7em">&#8225;</tspan></text>
    <text x="1190" y="248" text-anchor="middle" fill="black"> 10.9 </text>
    <text x="1190" y="263" text-anchor="middle" fill="black">[10.81]</text>
    <line x1="1132" y1="258" x2="1168" y2="233" stroke="black" stroke-width="2" stroke-dasharray="6,6"/>
    <line x1="1248" y1="287" x2="1292" y2="287" stroke="black" stroke-width="3" />
    <text x="1270" y="282" text-anchor="middle" fill="black">A'</text>
    <text x="1270" y="302" text-anchor="middle" fill="black"> -1.2 </text>
    <text x="1270" y="317" text-anchor="middle" fill="black">[-1.89]</text>
    <line x1="1212" y1="233" x2="1248" y2="287" stroke="black" stroke-width="2" stroke-dasharray="6,6"/>
    <line x1="208" y1="281" x2="252" y2="281" stroke="darkblue" stroke-width="3" />
    <text x="230" y="276" text-anchor="middle" fill="darkblue">O</text>
    <text x="230" y="296" text-anchor="middle" fill="darkblue"> 0.0 </text>
    <text x="230" y="311" text-anchor="middle" fill="darkblue">[0.12]</text>
    <line x1="288" y1="110" x2="332" y2="110" stroke="darkblue" stroke-width="3" />
    <text x="310" y="105" text-anchor="middle" fill="darkblue">P<tspan dy="-7" font-family="monospace" font-size=".7em">&#8225;</tspan></text>
    <text x="310" y="125" text-anchor="middle" fill="darkblue"> 38.4 </text>
    <text x="310" y="140" text-anchor="middle" fill="darkblue">[38.33]</text>
    <line x1="252" y1="281" x2="288" y2="110" stroke="darkblue" stroke-width="2" stroke-dasharray="6,6"/>
    <line x1="368" y1="230" x2="412" y2="230" stroke="darkblue" stroke-width="3" />
    <text x="390" y="225" text-anchor="middle" fill="darkblue">Q</text>
    <text x="390" y="245" text-anchor="middle" fill="darkblue"> 11.5 </text>
    <text x="390" y="260" text-anchor="middle" fill="darkblue">[11.12]</text>
    <line x1="332" y1="110" x2="368" y2="230" stroke="darkblue" stroke-width="2" stroke-dasharray="6,6"/>
    <line x1="448" y1="244" x2="492" y2="244" stroke="darkblue" stroke-width="3" />
    <text x="470" y="239" text-anchor="middle" fill="darkblue">R</text>
    <text x="470" y="259" text-anchor="middle" fill="darkblue"> 8.3 </text>
    <text x="470" y="274" text-anchor="middle" fill="darkblue">[8.11]</text>
    <line x1="412" y1="230" x2="448" y2="244" stroke="darkblue" stroke-width="2" stroke-dasharray="6,6"/>
    <line x1="528" y1="450" x2="572" y2="450" stroke="darkblue" stroke-width="3" />
    <text x="550" y="413" text-anchor="middle" fill="darkblue">S</text>
    <text x="550" y="428" text-anchor="middle" fill="darkblue"> -37.8 </text>
    <text x="550" y="443" text-anchor="middle" fill="darkblue">[-37.34]</text>
    <line x1="492" y1="244" x2="528" y2="450" stroke="darkblue" stroke-width="2" stroke-dasharray="6,6"/>
    <line x1="608" y1="156" x2="652" y2="156" stroke="darkblue" stroke-width="3" />
    <text x="630" y="151" text-anchor="middle" fill="darkblue">T<tspan dy="-7" font-family="monospace" font-size=".7em">&#8225;</tspan></text>
    <text x="630" y="171" text-anchor="middle" fill="darkblue"> 28.1 </text>
    <text x="630" y="186" text-anchor="middle" fill="darkblue">[28.19]</text>
    <line x1="572" y1="450" x2="608" y2="156" stroke="darkblue" stroke-width="2" stroke-dasharray="6,6"/>
    <line x1="688" y1="287" x2="732" y2="287" stroke="darkblue" stroke-width="3" />
    <text x="710" y="304" text-anchor="middle" fill="darkblue">U</text>
    <text x="710" y="319" text-anchor="middle" fill="darkblue"> -1.3 </text>
    <text x="710" y="334" text-anchor="middle" fill="darkblue">[-1.18]</text>
    <line x1="652" y1="156" x2="688" y2="287" stroke="darkblue" stroke-width="2" stroke-dasharray="6,6"/>
    <line x1="848" y1="279" x2="892" y2="279" stroke="darkblue" stroke-width="3" />
    <text x="870" y="274" text-anchor="middle" fill="darkblue">V</text>
    <text x="870" y="294" text-anchor="middle" fill="darkblue"> 0.6 </text>
    <text x="870" y="309" text-anchor="middle" fill="darkblue">[-0.06]</text>
    <line x1="732" y1="287" x2="848" y2="279" stroke="darkblue" stroke-width="2" stroke-dasharray="6,6"/>
    <line x1="928" y1="50" x2="972" y2="50" stroke="darkblue" stroke-width="3" />
    <text x="950" y="45" text-anchor="middle" fill="darkblue">X<tspan dy="-7" font-family="monospace" font-size=".7em">&#8225;</tspan></text>
    <text x="950" y="65" text-anchor="middle" fill="darkblue"> 51.8 </text>
    <text x="950" y="80" text-anchor="middle" fill="darkblue">[51.46]</text>
    <line x1="892" y1="279" x2="928" y2="50" stroke="darkblue" stroke-width="2" stroke-dasharray="6,6"/>
    <line x1="1008" y1="296" x2="1052" y2="296" stroke="darkblue" stroke-width="3" />
    <text x="1030" y="291" text-anchor="middle" fill="darkblue">Y</text>
    <text x="1030" y="311" text-anchor="middle" fill="darkblue"> -3.2 </text>
    <text x="1030" y="326" text-anchor="middle" fill="darkblue">[-2.44]</text>
    <line x1="972" y1="50" x2="1008" y2="296" stroke="darkblue" stroke-width="2" stroke-dasharray="6,6"/>
    <line x1="1088" y1="147" x2="1132" y2="147" stroke="darkblue" stroke-width="3" />
    <text x="1110" y="142" text-anchor="middle" fill="darkblue">Z</text>
    <text x="1110" y="162" text-anchor="middle" fill="darkblue"> 30.1 </text>
    <text x="1110" y="177" text-anchor="middle" fill="darkblue">[30.33]</text>
    <line x1="1052" y1="296" x2="1088" y2="147" stroke="darkblue" stroke-width="2" stroke-dasharray="6,6"/>
    <line x1="172" y1="247" x2="208" y2="281" stroke="darkblue" stroke-width="2" stroke-dasharray="6,6"/>
    <line x1="1052" y1="296" x2="1088" y2="258" stroke="red" stroke-width="2" />
</svg>
