<?xml version="1.0" encoding="UTF-8" ?>
<svg width="1105" viewBox="30 0 1105 500" height="500" xmlns="http://www.w3.org/2000/svg">
    <line x1="100" y1="35" x2="100" y2="475" stroke="black" stroke-width="2"/>
    <line x1="100" y1="475" x2="1085" y2="475" stroke="black" stroke-width="2"/>
    <text x="567" y="20" font-size="22" text-anchor="middle" fill="black">Main Title</text>
    <text x="-250" y="55" font-size="22" transform="rotate(-90)" text-anchor="middle" fill="black">&#916;G in kcal&#183;mol&#8315;&#185;</text>
    <text x="567" y="495" font-size="22" text-anchor="middle" fill="black">Reaction coordinate</text>
    <line x1="1085" y1="35" x2="1085" y2="475" stroke="black" stroke-width="2"/>
    <line x1="100" y1="35" x2="1085" y2="35" stroke="black" stroke-width="2"/>
    <line x1="100" y1="75" x2="105" y2="75" stroke="black" stroke-width="2"/>
    <text x="80" y="75" text-anchor="middle" fill="black">32.0</text>
    <line x1="100" y1="106" x2="105" y2="106" stroke="black" stroke-width="2"/>
    <text x="80" y="106" text-anchor="middle" fill="black">28.0</text>
    <line x1="100" y1="136" x2="105" y2="136" stroke="black" stroke-width="2"/>
    <text x="80" y="136" text-anchor="middle" fill="black">24.0</text>
    <line x1="100" y1="167" x2="105" y2="167" stroke="black" stroke-width="2"/>
    <text x="80" y="167" text-anchor="middle" fill="black">20.0</text>
    <line x1="100" y1="198" x2="105" y2="198" stroke="black" stroke-width="2"/>
    <text x="80" y="198" text-anchor="middle" fill="black">16.0</text>
    <line x1="100" y1="229" x2="105" y2="229" stroke="black" stroke-width="2"/>
    <text x="80" y="229" text-anchor="middle" fill="black">12.0</text>
    <line x1="100" y1="259" x2="105" y2="259" stroke="black" stroke-width="2"/>
    <text x="80" y="259" text-anchor="middle" fill="black">8.0</text>
    <line x1="100" y1="290" x2="105" y2="290" stroke="black" stroke-width="2"/>
    <text x="80" y="290" text-anchor="middle" fill="black">4.0</text>
    <line x1="100" y1="321" x2="105" y2="321" stroke="black" stroke-width="2"/>
    <text x="80" y="321" text-anchor="middle" fill="black">0.0</text>
    <line x1="100" y1="352" x2="105" y2="352" stroke="black" stroke-width="2"/>
    <text x="80" y="352" text-anchor="middle" fill="black">-4.0</text>
    <line x1="100" y1="382" x2="105" y2="382" stroke="black" stroke-width="2"/>
    <text x="80" y="382" text-anchor="middle" fill="black">-8.0</text>
    <line x1="100" y1="413" x2="105" y2="413" stroke="black" stroke-width="2"/>
    <text x="80" y="413" text-anchor="middle" fill="black">-12.0</text>
    <line x1="100" y1="444" x2="105" y2="444" stroke="black" stroke-width="2"/>
    <text x="80" y="444" text-anchor="middle" fill="black">-16.0</text>
    <line x1="140" y1="246" x2="180" y2="246" stroke="blue" stroke-width="3" />
    <text x="160" y="263" text-anchor="middle" fill="blue">A</text>
    <text x="160" y="278" text-anchor="middle" fill="blue"> 9.8 </text>
    <text x="160" y="293" text-anchor="middle" fill="blue">[10.8]</text>
    <line x1="225" y1="400" x2="265" y2="400" stroke="blue" stroke-width="3" />
    <text x="245" y="417" text-anchor="middle" fill="blue">B</text>
    <text x="245" y="432" text-anchor="middle" fill="blue"> -10.2 </text>
    <text x="245" y="447" text-anchor="middle" fill="blue">[-9.8]</text>
    <line x1="180" y1="246" x2="225" y2="400" stroke="blue" stroke-width="2" stroke-dasharray="6,6"/>
    <line x1="310" y1="261" x2="350" y2="261" stroke="blue" stroke-width="3" />
    <text x="330" y="278" text-anchor="middle" fill="blue">C</text>
    <text x="330" y="293" text-anchor="middle" fill="blue"> 7.8 </text>
    <text x="330" y="308" text-anchor="middle" fill="blue">[8.5]</text>
    <line x1="265" y1="400" x2="310" y2="261" stroke="blue" stroke-width="2" stroke-dasharray="6,6"/>
    <line x1="395" y1="159" x2="435" y2="159" stroke="blue" stroke-width="3" />
    <text x="415" y="176" text-anchor="middle" fill="blue">D</text>
    <text x="415" y="191" text-anchor="middle" fill="blue"> 21.1 </text>
    <text x="415" y="206" text-anchor="middle" fill="blue">[21.4]</text>
    <line x1="350" y1="261" x2="395" y2="159" stroke="blue" stroke-width="2" stroke-dasharray="6,6"/>
    <line x1="480" y1="201" x2="520" y2="201" stroke="blue" stroke-width="3" />
    <text x="500" y="218" text-anchor="middle" fill="blue">E</text>
    <text x="500" y="233" text-anchor="middle" fill="blue"> 15.6 </text>
    <text x="500" y="248" text-anchor="middle" fill="blue">[16.2]</text>
    <line x1="435" y1="159" x2="480" y2="201" stroke="blue" stroke-width="2" stroke-dasharray="6,6"/>
    <line x1="565" y1="269" x2="605" y2="269" stroke="blue" stroke-width="3" />
    <text x="585" y="286" text-anchor="middle" fill="blue">F</text>
    <text x="585" y="301" text-anchor="middle" fill="blue"> 6.8 </text>
    <text x="585" y="316" text-anchor="middle" fill="blue">[6.4]</text>
    <line x1="520" y1="201" x2="565" y2="269" stroke="blue" stroke-width="2" stroke-dasharray="6,6"/>
    <line x1="650" y1="133" x2="690" y2="133" stroke="blue" stroke-width="3" />
    <text x="670" y="150" text-anchor="middle" fill="blue">G</text>
    <text x="670" y="165" text-anchor="middle" fill="blue"> 24.4 </text>
    <text x="670" y="180" text-anchor="middle" fill="blue">[24.1]</text>
    <line x1="605" y1="269" x2="650" y2="133" stroke="blue" stroke-width="2" stroke-dasharray="6,6"/>
    <line x1="735" y1="253" x2="775" y2="253" stroke="blue" stroke-width="3" />
    <text x="755" y="270" text-anchor="middle" fill="blue">H</text>
    <text x="755" y="285" text-anchor="middle" fill="blue"> 8.8 </text>
    <text x="755" y="300" text-anchor="middle" fill="blue">[8.4]</text>
    <line x1="690" y1="133" x2="735" y2="253" stroke="blue" stroke-width="2" stroke-dasharray="6,6"/>
    <line x1="820" y1="311" x2="860" y2="311" stroke="blue" stroke-width="3" />
    <text x="840" y="328" text-anchor="middle" fill="blue">I</text>
    <text x="840" y="343" text-anchor="middle" fill="blue"> 1.4 </text>
    <text x="840" y="358" text-anchor="middle" fill="blue">[1.9]</text>
    <line x1="775" y1="253" x2="820" y2="311" stroke="blue" stroke-width="2" stroke-dasharray="6,6"/>
    <line x1="905" y1="222" x2="945" y2="222" stroke="blue" stroke-width="3" />
    <text x="925" y="239" text-anchor="middle" fill="blue">J</text>
    <text x="925" y="254" text-anchor="middle" fill="blue"> 12.9 </text>
    <text x="925" y="269" text-anchor="middle" fill="blue">[12.0]</text>
    <line x1="860" y1="311" x2="905" y2="222" stroke="blue" stroke-width="2" stroke-dasharray="6,6"/>
    <line x1="990" y1="410" x2="1030" y2="410" stroke="blue" stroke-width="3" />
    <text x="1010" y="427" text-anchor="middle" fill="blue">A'</text>
    <text x="1010" y="442" text-anchor="middle" fill="blue"> -11.5 </text>
    <text x="1010" y="457" text-anchor="middle" fill="blue">[-12.0]</text>
    <line x1="945" y1="222" x2="990" y2="410" stroke="blue" stroke-width="2" stroke-dasharray="6,6"/>
    <line x1="140" y1="199" x2="180" y2="199" stroke="black" stroke-width="3" />
    <text x="160" y="162" text-anchor="middle" fill="black">A</text>
    <text x="160" y="177" text-anchor="middle" fill="black"> 15.8 </text>
    <text x="160" y="192" text-anchor="middle" fill="black">[15.9]</text>
    <line x1="225" y1="361" x2="265" y2="361" stroke="black" stroke-width="3" />
    <text x="245" y="324" text-anchor="middle" fill="black">B</text>
    <text x="245" y="339" text-anchor="middle" fill="black"> -5.2 </text>
    <text x="245" y="354" text-anchor="middle" fill="black">[-4.4]</text>
    <line x1="180" y1="199" x2="225" y2="361" stroke="black" stroke-width="2" stroke-dasharray="6,6"/>
    <line x1="310" y1="261" x2="350" y2="261" stroke="black" stroke-width="3" />
    <text x="330" y="224" text-anchor="middle" fill="black">C</text>
    <text x="330" y="239" text-anchor="middle" fill="black"> 7.8 </text>
    <text x="330" y="254" text-anchor="middle" fill="black">[8.8]</text>
    <line x1="265" y1="361" x2="310" y2="261" stroke="black" stroke-width="2" stroke-dasharray="6,6"/>
    <line x1="395" y1="136" x2="435" y2="136" stroke="black" stroke-width="3" />
    <text x="415" y="99" text-anchor="middle" fill="black">D</text>
    <text x="415" y="114" text-anchor="middle" fill="black"> 24.1 </text>
    <text x="415" y="129" text-anchor="middle" fill="black">[24.4]</text>
    <line x1="350" y1="261" x2="395" y2="136" stroke="black" stroke-width="2" stroke-dasharray="6,6"/>
    <line x1="480" y1="186" x2="520" y2="186" stroke="black" stroke-width="3" />
    <text x="500" y="149" text-anchor="middle" fill="black">E</text>
    <text x="500" y="164" text-anchor="middle" fill="black"> 17.6 </text>
    <text x="500" y="179" text-anchor="middle" fill="black">[17.9]</text>
    <line x1="435" y1="136" x2="480" y2="186" stroke="black" stroke-width="2" stroke-dasharray="6,6"/>
    <line x1="565" y1="231" x2="605" y2="231" stroke="black" stroke-width="3" />
    <text x="585" y="194" text-anchor="middle" fill="black">F</text>
    <text x="585" y="209" text-anchor="middle" fill="black"> 11.8 </text>
    <text x="585" y="224" text-anchor="middle" fill="black">[12.6]</text>
    <line x1="520" y1="186" x2="565" y2="231" stroke="black" stroke-width="2" stroke-dasharray="6,6"/>
    <line x1="650" y1="95" x2="690" y2="95" stroke="black" stroke-width="3" />
    <text x="670" y="58" text-anchor="middle" fill="black">G</text>
    <text x="670" y="73" text-anchor="middle" fill="black"> 29.4 </text>
    <text x="670" y="88" text-anchor="middle" fill="black">[29.9]</text>
    <line x1="605" y1="231" x2="650" y2="95" stroke="black" stroke-width="2" stroke-dasharray="6,6"/>
    <line x1="735" y1="238" x2="775" y2="238" stroke="black" stroke-width="3" />
    <text x="755" y="201" text-anchor="middle" fill="black">H</text>
    <text x="755" y="216" text-anchor="middle" fill="black"> 10.8 </text>
    <text x="755" y="231" text-anchor="middle" fill="black">[11.4]</text>
    <line x1="690" y1="95" x2="735" y2="238" stroke="black" stroke-width="2" stroke-dasharray="6,6"/>
    <line x1="820" y1="288" x2="860" y2="288" stroke="black" stroke-width="3" />
    <text x="840" y="251" text-anchor="middle" fill="black">I</text>
    <text x="840" y="266" text-anchor="middle" fill="black"> 4.4 </text>
    <text x="840" y="281" text-anchor="middle" fill="black">[5.0]</text>
    <line x1="775" y1="238" x2="820" y2="288" stroke="black" stroke-width="2" stroke-dasharray="6,6"/>
    <line x1="905" y1="207" x2="945" y2="207" stroke="black" stroke-width="3" />
    <text x="925" y="170" text-anchor="middle" fill="black">J</text>
    <text x="925" y="185" text-anchor="middle" fill="black"> 14.9 </text>
    <text x="925" y="200" text-anchor="middle" fill="black">[15.2]</text>
    <line x1="860" y1="288" x2="905" y2="207" stroke="black" stroke-width="2" stroke-dasharray="6,6"/>
    <line x1="990" y1="410" x2="1030" y2="410" stroke="black" stroke-width="3" />
    <text x="1010" y="373" text-anchor="middle" fill="black">A'</text>
    <text x="1010" y="388" text-anchor="middle" fill="black"> -11.5 </text>
    <text x="1010" y="403" text-anchor="middle" fill="black">[-11.1]</text>
    <line x1="945" y1="207" x2="990" y2="410" stroke="black" stroke-width="2" stroke-dasharray="6,6"/>
    <line x1="265" y1="400" x2="565" y2="269" stroke="red" stroke-width="2" stroke-dasharray="2,2"/>
    <line x1="265" y1="361" x2="565" y2="231" stroke="red" stroke-width="2" stroke-dasharray="2,2"/>
    <line x1="265" y1="400" x2="635" y2="400" stroke="green" stroke-width="1.5" stroke-dasharray="2,2"/>
    <line x1="625" y1="392" x2="625" y2="277" stroke="green" stroke-width="1.5" />
    <polygon points="625,398 621,392 629,392" style="fill:green;stroke:green;stroke-width:1"/>
    <polygon points="625,271 621,277 629,277" style="fill:green;stroke:green;stroke-width:1"/>
    <text x="620" y="334" font-size="16" transform="rotate(-90,620,334)" text-anchor="middle" fill="green">17.0</text>
    <line x1="635" y1="269" x2="605" y2="269" stroke="green" stroke-width="1.5" stroke-dasharray="2,2"/>
</svg>
