<?xml version="1.0" encoding="UTF-8" ?>
<svg width="1105" viewBox="30 0 1105 500" height="500" xmlns="http://www.w3.org/2000/svg">
    <line x1="100" y1="35" x2="100" y2="475" stroke="black" stroke-width="2"/>
    <line x1="100" y1="475" x2="1085" y2="475" stroke="black" stroke-width="2"/>
    <text x="567" y="20" font-size="22" text-anchor="middle" fill="black">Main Title</text>
    <text x="-250" y="55" font-size="22" transform="rotate(-90)" text-anchor="middle" fill="black">&#916;G in kcal&#183;mol&#8315;&#185;</text>
    <text x="567" y="495" font-size="22" text-anchor="middle" fill="black">Reaction coordinate</text>
    <polygon points="100,25 95,35 105,35" style="fill:black;stroke:black;stroke-width:1"/>
    <polygon points="1095,475 1085,470 1085,480" style="fill:black;stroke:black;stroke-width:1"/>
    <line x1="100" y1="64" x2="105" y2="64" stroke="black" stroke-width="2"/>
    <text x="80" y="64" text-anchor="middle" fill="black">24.0</text>
    <line x1="100" y1="108" x2="105" y2="108" stroke="black" stroke-width="2"/>
    <text x="80" y="108" text-anchor="middle" fill="black">20.0</text>
    <line x1="100" y1="151" x2="105" y2="151" stroke="black" stroke-width="2"/>
    <text x="80" y="151" text-anchor="middle" fill="black">16.0</text>
    <line x1="100" y1="194" x2="105" y2="194" stroke="black" stroke-width="2"/>
    <text x="80" y="194" text-anchor="middle" fill="black">12.0</text>
    <line x1="100" y1="238" x2="105" y2="238" stroke="black" stroke-width="2"/>
    <text x="80" y="238" text-anchor="middle" fill="black">8.0</text>
    <line x1="100" y1="281" x2="105" y2="281" stroke="black" stroke-width="2"/>
    <text x="80" y="281" text-anchor="middle" fill="black">4.0</text>
    <line x1="100" y1="324" x2="105" y2="324" stroke="black" stroke-width="2"/>
    <text x="80" y="324" text-anchor="middle" fill="black">0.0</text>
    <line x1="100" y1="368" x2="105" y2="368" stroke="black" stroke-width="2"/>
    <text x="80" y="368" text-anchor="middle" fill="black">-4.0</text>
    <line x1="100" y1="411" x2="105" y2="411" stroke="black" stroke-width="2"/>
    <text x="80" y="411" text-anchor="middle" fill="black">-8.0</text>
    <line x1="100" y1="454" x2="105" y2="454" stroke="black" stroke-width="2"/>
    <text x="80" y="454" text-anchor="middle" fill="black">-12.0</text>
    <line x1="140" y1="218" x2="180" y2="218" stroke="black" stroke-width="3" />
    <text x="160" y="213" text-anchor="middle" fill="black">A</text>
    <text x="160" y="233" text-anchor="middle" fill="black"> 9.8 </text>
    <line x1="225" y1="435" x2="265" y2="435" stroke="black" stroke-width="3" />
    <text x="245" y="430" text-anchor="middle" fill="black">B</text>
    <text x="245" y="450" text-anchor="middle" fill="black"> -10.2 </text>
    <line x1="180" y1="218" x2="225" y2="435" stroke="black" stroke-width="2" stroke-dasharray="6,6"/>
    <line x1="310" y1="240" x2="350" y2="240" stroke="black" stroke-width="3" />
    <text x="330" y="235" text-anchor="middle" fill="black">C</text>
    <text x="330" y="255" text-anchor="middle" fill="black"> 7.8 </text>
    <line x1="265" y1="435" x2="310" y2="240" stroke="black" stroke-width="2" stroke-dasharray="6,6"/>
    <line x1="395" y1="97" x2="435" y2="97" stroke="black" stroke-width="3" />
    <text x="415" y="92" text-anchor="middle" fill="black">D</text>
    <text x="415" y="112" text-anchor="middle" fill="black"> 21.1 </text>
    <line x1="350" y1="240" x2="395" y2="97" stroke="black" stroke-width="2" stroke-dasharray="6,6"/>
    <line x1="480" y1="156" x2="520" y2="156" stroke="black" stroke-width="3" />
    <text x="500" y="151" text-anchor="middle" fill="black">E</text>
    <text x="500" y="171" text-anchor="middle" fill="black"> 15.6 </text>
    <line x1="435" y1="97" x2="480" y2="156" stroke="black" stroke-width="2" stroke-dasharray="6,6"/>
    <line x1="565" y1="251" x2="605" y2="251" stroke="black" stroke-width="3" />
    <text x="585" y="246" text-anchor="middle" fill="black">F</text>
    <text x="585" y="266" text-anchor="middle" fill="black"> 6.8 </text>
    <line x1="520" y1="156" x2="565" y2="251" stroke="black" stroke-width="2" stroke-dasharray="6,6"/>
    <line x1="650" y1="60" x2="690" y2="60" stroke="black" stroke-width="3" />
    <text x="670" y="55" text-anchor="middle" fill="black">G</text>
    <text x="670" y="75" text-anchor="middle" fill="black"> 24.4 </text>
    <line x1="605" y1="251" x2="650" y2="60" stroke="black" stroke-width="2" stroke-dasharray="6,6"/>
    <line x1="735" y1="229" x2="775" y2="229" stroke="black" stroke-width="3" />
    <text x="755" y="224" text-anchor="middle" fill="black">H</text>
    <text x="755" y="244" text-anchor="middle" fill="black"> 8.8 </text>
    <line x1="690" y1="60" x2="735" y2="229" stroke="black" stroke-width="2" stroke-dasharray="6,6"/>
    <line x1="820" y1="310" x2="860" y2="310" stroke="black" stroke-width="3" />
    <text x="840" y="305" text-anchor="middle" fill="black">I</text>
    <text x="840" y="325" text-anchor="middle" fill="black"> 1.4 </text>
    <line x1="775" y1="229" x2="820" y2="310" stroke="black" stroke-width="2" stroke-dasharray="6,6"/>
    <line x1="905" y1="185" x2="945" y2="185" stroke="black" stroke-width="3" />
    <text x="925" y="180" text-anchor="middle" fill="black">J</text>
    <text x="925" y="200" text-anchor="middle" fill="black"> 12.9 </text>
    <line x1="860" y1="310" x2="905" y2="185" stroke="black" stroke-width="2" stroke-dasharray="6,6"/>
    <line x1="990" y1="450" x2="1030" y2="450" stroke="black" stroke-width="3" />
    <text x="1010" y="445" text-anchor="middle" fill="black">A'</text>
    <text x="1010" y="465" text-anchor="middle" fill="black"> -11.5 </text>
    <line x1="945" y1="185" x2="990" y2="450" stroke="black" stroke-width="2" stroke-dasharray="6,6"/>
    <line x1="265" y1="435" x2="710" y2="435" stroke="green" stroke-width="1.5" stroke-dasharray="2,2"/>
    <line x1="700" y1="427" x2="700" y2="68" stroke="green" stroke-width="1.5" />
    <polygon points="700,433 696,427 704,427" style="fill:green;stroke:green;stroke-width:1"/>
    <polygon points="700,62 696,68 704,68" style="fill:green;stroke:green;stroke-width:1"/>
    <text x="695" y="247" font-size="16" transform="rotate(-90,695,247)" text-anchor="middle" fill="green">34.6</text>
    <line x1="710" y1="60" x2="690" y2="60" stroke="green" stroke-width="1.5" stroke-dasharray="2,2"/>
    <text x="245" y="388" text-anchor="middle" fill="black">TDI</text>
    <text x="245" y="406" text-anchor="middle" fill="black">&#8595;</text>
    <text x="670" y="122" text-anchor="middle" fill="black">TDTS</text>
    <text x="670" y="99" text-anchor="middle" fill="black">&#8593;</text>
    <text x="120" y="450" text-anchor="left" fill="black">Delta = -21.39</text>
    <text x="120" y="470" text-anchor="left" fill="black">Span = 34.62</text>
</svg>
